<?xml version="1.0" encoding="UTF-8"?>
<!-- Generator: Adobe Illustrator 14.0.0, SVG Export Plug-In . SVG Version: 6.00 Build 43363)  -->
<!DOCTYPE svg PUBLIC "-//W3C//DTD SVG 1.1//EN" "http://www.w3.org/Graphics/SVG/1.1/DTD/svg11.dtd">
<svg version="1.1" id="Layer_1" xmlns="http://www.w3.org/2000/svg" xmlns:xlink="http://www.w3.org/1999/xlink" x="0px" y="0px" width="464.47px" height="246px" viewBox="0 0 464.47 246" enable-background="new 0 0 464.47 246" xml:space="preserve">
<polygon fill="#010101" points="227.979,116.496 227.979,121.709 222.766,121.709 222.766,126.923 217.551,126.923 217.551,132.138   212.336,132.138 212.336,142.57 217.551,142.57 217.551,147.784 222.766,147.784 222.766,152.999 227.979,152.999 227.979,158.212   243.625,158.212 243.625,152.999 248.839,152.999 248.839,142.567 243.625,142.567 243.625,132.141 248.839,132.141   248.839,121.709 243.625,121.709 243.625,116.496 "/>
<polygon fill="#009444" points="227.982,126.927 227.982,121.713 243.623,121.713 243.623,132.138 238.408,132.138 238.408,134.745   233.194,134.745 233.194,139.963 238.408,139.963 238.408,142.57 243.623,142.57 243.623,152.995 227.982,152.995 227.982,147.781   222.769,147.781 222.769,142.567 217.555,142.567 217.555,132.141 222.769,132.141 222.769,126.927 "/>
<polygon fill="#010101" points="191.479,152.997 196.692,152.997 196.692,147.783 201.906,147.783 201.906,142.569 207.122,142.569   207.122,137.354 217.552,137.354 217.552,142.569 222.767,142.569 222.767,147.783 227.981,147.783 227.981,152.997   233.196,152.997 233.196,168.643 227.981,168.643 227.981,173.857 217.549,173.857 217.549,168.643 207.125,168.643   207.125,173.857 196.692,173.857 196.692,168.643 191.479,168.643 "/>
<polygon fill="#009444" points="201.91,153 196.696,153 196.696,168.64 207.121,168.64 207.121,163.424 209.728,163.424   209.728,158.21 214.946,158.21 214.946,163.424 217.553,163.424 217.553,168.64 227.978,168.64 227.978,153 222.764,153   222.764,147.786 217.55,147.786 217.55,142.572 207.124,142.572 207.124,147.786 201.91,147.786 "/>
<polygon fill="#010101" points="196.694,158.211 196.694,152.998 201.908,152.998 201.908,147.784 207.122,147.784 207.122,142.569   212.337,142.569 212.337,132.137 207.122,132.137 207.122,126.923 201.908,126.923 201.908,121.708 196.694,121.708   196.694,116.495 181.048,116.495 181.048,121.708 175.834,121.708 175.834,132.14 181.048,132.14 181.048,142.566 175.834,142.566   175.834,152.998 181.048,152.998 181.048,158.211 "/>
<polygon fill="#009444" points="196.691,147.78 196.691,152.994 181.051,152.994 181.051,142.569 186.266,142.569 186.266,139.962   191.48,139.962 191.48,134.744 186.266,134.744 186.266,132.137 181.051,132.137 181.051,121.712 196.691,121.712 196.691,126.926   201.905,126.926 201.905,132.14 207.119,132.14 207.119,142.566 201.905,142.566 201.905,147.78 "/>
<polygon fill="#010101" points="233.195,121.71 227.981,121.71 227.981,126.924 222.767,126.924 222.767,132.138 217.552,132.138   217.552,137.353 207.121,137.353 207.121,132.138 201.907,132.138 201.907,126.924 196.692,126.924 196.692,121.71 191.478,121.71   191.478,106.064 196.692,106.064 196.692,100.851 207.124,100.851 207.124,106.064 217.549,106.064 217.549,100.851   227.981,100.851 227.981,106.064 233.195,106.064 "/>
<polygon fill="#009444" points="222.764,121.708 227.978,121.708 227.978,106.067 217.553,106.067 217.553,111.282 214.946,111.282   214.946,116.497 209.728,116.497 209.728,111.282 207.121,111.282 207.121,106.067 196.696,106.067 196.696,121.708 201.91,121.708   201.91,126.921 207.124,126.921 207.124,132.135 217.55,132.135 217.55,126.921 222.764,126.921 "/>
<rect x="243.622" y="137.343" fill="#009444" width="5.215" height="5.214"/>
<rect x="248.837" y="142.565" fill="#009444" width="5.214" height="5.214"/>
<rect x="254.051" y="147.778" fill="#009444" width="5.214" height="5.214"/>
<rect x="259.265" y="152.998" fill="#009444" width="5.214" height="5.214"/>
<rect x="264.479" y="163.425" fill="#009444" width="5.214" height="5.214"/>
<rect x="264.479" y="158.211" fill="#009444" width="5.214" height="5.214"/>
<rect x="248.837" y="147.778" width="5.214" height="5.214"/>
<rect x="254.051" y="152.991" width="5.214" height="5.214"/>
<rect x="259.265" y="158.211" width="5.214" height="5.214"/>
<rect x="259.265" y="163.425" width="5.214" height="5.214"/>
<rect x="264.479" y="173.857" fill="#009444" width="5.214" height="5.214"/>
<rect x="264.479" y="168.642" fill="#009444" width="5.214" height="5.215"/>
<rect x="259.265" y="168.642" width="5.214" height="5.215"/>
<rect x="259.265" y="173.857" width="5.214" height="5.214"/>
<rect x="126.74" y="167.336" fill="#2D2D2C" width="33.208" height="4.705"/>
<rect x="113.968" y="162.805" fill="#2D2D2C" width="45.979" height="4.993"/>
<rect x="97.701" y="158.562" fill="#2D2D2C" width="62.247" height="4.705"/>
<rect x="79.868" y="158.562" fill="#565656" width="33.208" height="4.705"/>
<rect x="79.868" y="163.267" fill="#565656" width="46.872" height="4.531"/>
<rect x="79.867" y="167.798" fill="#565656" width="63.948" height="4.243"/>
<polygon fill="#D4D4D4" points="159.947,42.307 159.947,37.44 67.191,37.44 67.191,42.307 62.34,42.307 62.34,154.941   164.944,154.941 164.944,42.307 "/>
<rect x="74.605" y="50.931" fill="#D7D6EC" width="77.131" height="58.643"/>
<rect x="57.486" y="42.308" fill="#010101" width="4.855" height="112.019"/>
<rect x="159.947" y="37.439" fill="#010101" width="4.851" height="4.851"/>
<rect x="62.34" y="37.439" fill="#010101" width="4.851" height="4.851"/>
<rect x="96.947" y="91.402" fill="#010101" width="4.851" height="4.851"/>
<rect x="119.431" y="91.402" fill="#010101" width="4.851" height="4.851"/>
<rect x="70.42" y="136.058" fill="#E63E25" width="9.024" height="4.852"/>
<rect x="70.42" y="131.208" fill="#32B44A" width="9.024" height="4.851"/>
<rect x="124.283" y="131.66" fill="#010101" width="27.454" height="4.851"/>
<rect x="124.283" y="136.509" fill="#888888" width="27.454" height="4.852"/>
<rect x="159.948" y="153.711" fill="#010101" width="4.851" height="23.18"/>
<rect x="62.341" y="153.711" fill="#010101" width="4.851" height="23.18"/>
<rect x="67.191" y="32.589" fill="#010101" width="92.756" height="4.851"/>
<rect x="74.605" y="46.08" fill="#565658" width="77.131" height="4.851"/>
<rect x="67.191" y="158.562" fill="#989898" width="33.208" height="4.705"/>
<rect x="67.191" y="163.267" fill="#989898" width="45.979" height="4.531"/>
<rect x="67.191" y="167.798" fill="#989898" width="62.247" height="4.243"/>
<rect x="69.754" y="50.931" fill="#565658" width="4.851" height="58.643"/>
<rect x="151.736" y="50.931" fill="#888888" width="4.851" height="58.643"/>
<rect x="110.746" y="64.139" fill="#010101" width="4.851" height="22.717"/>
<rect x="123.943" y="64.139" fill="#010101" width="4.851" height="9.531"/>
<rect x="92.709" y="64.139" fill="#010101" width="4.851" height="9.531"/>
<rect x="105.98" y="82.006" fill="#010101" width="9.531" height="4.851"/>
<rect x="101.797" y="95.891" fill="#010101" width="17.634" height="4.851"/>
<rect x="74.605" y="109.574" fill="#888888" width="77.131" height="4.851"/>
<rect x="62.487" y="153.711" fill="#010101" width="102.458" height="4.852"/>
<rect x="62.487" y="172.042" fill="#010101" width="102.458" height="4.851"/>
<rect x="164.82" y="42.308" fill="#010101" width="4.855" height="112.019"/>
<path d="M31.575,184.082h5.391l-2.695,10.307h10.718l2.631-10.307h5.391l-2.696,10.307h8.023v5.124h-9.37l-2.631,10.306h6.674v5.124  h-8.022l-2.696,10.308h-5.327l2.632-10.308H28.944l-2.696,10.308h-5.327l2.632-10.308H15.53v-5.124h9.37l2.696-10.306h-6.675v-5.124  h8.023L31.575,184.082z M32.923,199.512l-2.631,10.306h10.653l2.696-10.306H32.923z"/>
<path fill="none" stroke="#FFFFFF" stroke-width="5" stroke-miterlimit="10" d="M31.575,184.082h5.391l-2.695,10.307h10.718  l2.631-10.307h5.391l-2.696,10.307h8.023v5.124h-9.37l-2.631,10.306h6.674v5.124h-8.022l-2.696,10.308h-5.327l2.632-10.308H28.944  l-2.696,10.308h-5.327l2.632-10.308H15.53v-5.124h9.37l2.696-10.306h-6.675v-5.124h8.023L31.575,184.082z M32.923,199.512  l-2.631,10.306h10.653l2.696-10.306H32.923z"/>
<polygon points="63.382,223.733 63.382,184.082 65.526,184.082 85.097,202.849 104.613,184.082 109.232,184.082 109.232,223.733   100.05,223.733 100.05,199.518 83.998,214.957 68,199.518 68,223.733 "/>
<polygon fill="none" stroke="#FFFFFF" stroke-width="5" stroke-miterlimit="10" points="63.382,223.733 63.382,184.082   65.526,184.082 85.097,202.849 104.613,184.082 109.232,184.082 109.232,223.733 100.05,223.733 100.05,199.518 83.998,214.957   68,199.518 68,223.733 "/>
<g>
	<defs>
		<rect id="SVGID_1_" y="0" width="464.47" height="245.999"/>
	</defs>
	<clipPath id="SVGID_2_">
		<use xlink:href="#SVGID_1_" overflow="visible"/>
	</clipPath>
	<path clip-path="url(#SVGID_2_)" d="M117.483,223.733v-30.822c0-2.432,0.908-4.511,2.722-6.239c1.814-1.726,3.966-2.59,6.459-2.59   h9.181c2.492,0,4.636,0.873,6.432,2.617c1.796,1.745,2.694,3.814,2.694,6.212v30.822h-9.126v-17.606h-9.181v17.606H117.483z    M126.664,201.687h9.181v-8.776c0-1.234-0.449-2.282-1.347-3.146c-0.898-0.862-1.988-1.295-3.271-1.295   c-1.246,0-2.318,0.433-3.216,1.295c-0.898,0.864-1.347,1.912-1.347,3.146V201.687z"/>
	<path clip-path="url(#SVGID_2_)" fill="none" stroke="#FFFFFF" stroke-width="5" stroke-miterlimit="10" d="M117.483,223.733   v-30.822c0-2.432,0.908-4.511,2.722-6.239c1.814-1.726,3.966-2.59,6.459-2.59h9.181c2.492,0,4.636,0.873,6.432,2.617   c1.796,1.745,2.694,3.814,2.694,6.212v30.822h-9.126v-17.606h-9.181v17.606H117.483z M126.664,201.687h9.181v-8.776   c0-1.234-0.449-2.282-1.347-3.146c-0.898-0.862-1.988-1.295-3.271-1.295c-1.246,0-2.318,0.433-3.216,1.295   c-0.898,0.864-1.347,1.912-1.347,3.146V201.687z"/>
	<path clip-path="url(#SVGID_2_)" d="M153.222,223.733v-39.651h18.362c2.492,0,4.636,0.873,6.432,2.617   c1.796,1.745,2.694,3.814,2.694,6.212v2.379c0,1.974-0.697,3.869-2.089,5.683c-1.393,1.816-3.739,2.724-7.037,2.724h4.563   c1.246,0,2.318,0.432,3.216,1.295c0.898,0.864,1.347,1.913,1.347,3.146v15.597h-9.126v-13.218c0-1.197-0.449-2.228-1.347-3.093   c-0.898-0.862-1.988-1.296-3.271-1.296h-4.563v17.606H153.222z M162.403,201.687h4.563c1.283,0,2.373-0.433,3.271-1.295   c0.898-0.863,1.347-1.895,1.347-3.094v-4.388c0-1.234-0.449-2.282-1.347-3.146c-0.898-0.862-1.988-1.295-3.271-1.295h-4.563   V201.687z"/>
	<path clip-path="url(#SVGID_2_)" fill="none" stroke="#FFFFFF" stroke-width="5" stroke-miterlimit="10" d="M153.222,223.733   v-39.651h18.362c2.492,0,4.636,0.873,6.432,2.617c1.796,1.745,2.694,3.814,2.694,6.212v2.379c0,1.974-0.697,3.869-2.089,5.683   c-1.393,1.816-3.739,2.724-7.037,2.724h4.563c1.246,0,2.318,0.432,3.216,1.295c0.898,0.864,1.347,1.913,1.347,3.146v15.597h-9.126   v-13.218c0-1.197-0.449-2.228-1.347-3.093c-0.898-0.862-1.988-1.296-3.271-1.296h-4.563v17.606H153.222z M162.403,201.687h4.563   c1.283,0,2.373-0.433,3.271-1.295c0.898-0.863,1.347-1.895,1.347-3.094v-4.388c0-1.234-0.449-2.282-1.347-3.146   c-0.898-0.862-1.988-1.295-3.271-1.295h-4.563V201.687z"/>
	<path clip-path="url(#SVGID_2_)" d="M216.306,214.904c-0.367,5.887-3.409,8.828-9.126,8.828h-9.181   c-2.493,0-4.645-0.862-6.46-2.591c-1.814-1.726-2.721-3.806-2.721-6.237v-21.993c0-2.397,0.888-4.467,2.667-6.212   c1.777-1.744,3.948-2.617,6.514-2.617h9.181c5.753,0,8.796,2.943,9.126,8.829h-4.563c-0.367-2.96-1.888-4.441-4.563-4.441h-4.618   c-1.246,0-2.318,0.433-3.216,1.295c-0.898,0.865-1.347,1.912-1.347,3.146v21.993c0,1.198,0.449,2.238,1.347,3.118   c0.898,0.883,1.97,1.322,3.216,1.322h4.618c2.712,0,4.233-1.479,4.563-4.44H216.306z"/>
	<path clip-path="url(#SVGID_2_)" fill="none" stroke="#FFFFFF" stroke-width="5" stroke-miterlimit="10" d="M216.306,214.904   c-0.367,5.887-3.409,8.828-9.126,8.828h-9.181c-2.493,0-4.645-0.862-6.46-2.591c-1.814-1.726-2.721-3.806-2.721-6.237v-21.993   c0-2.397,0.888-4.467,2.667-6.212c1.777-1.744,3.948-2.617,6.514-2.617h9.181c5.753,0,8.796,2.943,9.126,8.829h-4.563   c-0.367-2.96-1.888-4.441-4.563-4.441h-4.618c-1.246,0-2.318,0.433-3.216,1.295c-0.898,0.865-1.347,1.912-1.347,3.146v21.993   c0,1.198,0.449,2.238,1.347,3.118c0.898,0.883,1.97,1.322,3.216,1.322h4.618c2.712,0,4.233-1.479,4.563-4.44H216.306z"/>
	<polygon clip-path="url(#SVGID_2_)" points="224.415,223.733 224.415,184.082 233.595,184.082 233.595,201.686 242.777,201.686    242.777,184.082 251.903,184.082 251.903,223.733 242.777,223.733 242.777,206.127 233.595,206.127 233.595,223.733  "/>
	<polygon clip-path="url(#SVGID_2_)" fill="none" stroke="#FFFFFF" stroke-width="5" stroke-miterlimit="10" points="   224.415,223.733 224.415,184.082 233.595,184.082 233.595,201.686 242.777,201.686 242.777,184.082 251.903,184.082    251.903,223.733 242.777,223.733 242.777,206.127 233.595,206.127 233.595,223.733  "/>
	<path clip-path="url(#SVGID_2_)" d="M260.28,184.082h9.182v4.389h-9.182V184.082z M260.28,192.911h9.182v30.822h-9.182V192.911z"/>
	<path clip-path="url(#SVGID_2_)" fill="none" stroke="#FFFFFF" stroke-width="5" stroke-miterlimit="10" d="M260.28,184.082h9.182   v4.389h-9.182V184.082z M260.28,192.911h9.182v30.822h-9.182V192.911z"/>
	<path clip-path="url(#SVGID_2_)" d="M277.949,223.733v-30.822h9.181v4.388c0.184-1.479,0.659-2.582,1.43-3.304   c0.77-0.722,1.813-1.084,3.134-1.084h4.618c2.491,0,4.636,0.864,6.432,2.591c1.795,1.727,2.694,3.789,2.694,6.185v22.047h-9.126   v-22.047c0-1.197-0.449-2.228-1.348-3.093c-0.898-0.862-1.989-1.295-3.271-1.295c-1.246,0-2.319,0.433-3.216,1.295   c-0.899,0.865-1.348,1.896-1.348,3.093v22.047H277.949z"/>
	<path clip-path="url(#SVGID_2_)" fill="none" stroke="#FFFFFF" stroke-width="5" stroke-miterlimit="10" d="M277.949,223.733   v-30.822h9.181v4.388c0.184-1.479,0.659-2.582,1.43-3.304c0.77-0.722,1.813-1.084,3.134-1.084h4.618   c2.491,0,4.636,0.864,6.432,2.591c1.795,1.727,2.694,3.789,2.694,6.185v22.047h-9.126v-22.047c0-1.197-0.449-2.228-1.348-3.093   c-0.898-0.862-1.989-1.295-3.271-1.295c-1.246,0-2.319,0.433-3.216,1.295c-0.899,0.865-1.348,1.896-1.348,3.093v22.047H277.949z"/>
	<path clip-path="url(#SVGID_2_)" d="M317.689,184.082h9.126v8.828h4.618v4.39h-4.618v17.604c0,1.446,0.495,2.547,1.484,3.306   c0.99,0.758,1.888,1.137,2.695,1.137h0.438v4.387h-4.618c-2.492,0-4.637-0.863-6.432-2.59c-1.796-1.727-2.694-3.807-2.694-6.239   v-17.604h-4.617v-4.39h4.617V184.082z"/>
	<path clip-path="url(#SVGID_2_)" fill="none" stroke="#FFFFFF" stroke-width="5" stroke-miterlimit="10" d="M317.689,184.082h9.126   v8.828h4.618v4.39h-4.618v17.604c0,1.446,0.495,2.547,1.484,3.306c0.99,0.758,1.888,1.137,2.695,1.137h0.438v4.387h-4.618   c-2.492,0-4.637-0.863-6.432-2.59c-1.796-1.727-2.694-3.807-2.694-6.239v-17.604h-4.617v-4.39h4.617V184.082z"/>
	<path clip-path="url(#SVGID_2_)" d="M348.338,192.911h9.182c2.492,0,4.635,0.864,6.431,2.59c1.796,1.729,2.695,3.79,2.695,6.187   v13.217c0,2.396-0.899,4.468-2.695,6.212c-1.796,1.745-3.938,2.617-6.431,2.617h-9.182c-2.492,0-4.646-0.863-6.46-2.591   c-1.813-1.727-2.722-3.808-2.722-6.238v-13.217c0-2.396,0.908-4.458,2.722-6.187C343.693,193.775,345.846,192.911,348.338,192.911    M348.338,201.687v13.217c0,1.199,0.448,2.239,1.348,3.119c0.896,0.882,1.969,1.321,3.215,1.321c1.283,0,2.374-0.439,3.271-1.321   c0.897-0.88,1.348-1.92,1.348-3.119v-13.217c0-1.198-0.45-2.229-1.348-3.094c-0.897-0.862-1.988-1.295-3.271-1.295   c-1.246,0-2.318,0.433-3.215,1.295C348.787,199.458,348.338,200.489,348.338,201.687"/>
	<path clip-path="url(#SVGID_2_)" fill="none" stroke="#FFFFFF" stroke-width="5" stroke-miterlimit="10" d="M348.338,192.911h9.182   c2.492,0,4.635,0.864,6.431,2.59c1.796,1.729,2.695,3.79,2.695,6.187v13.217c0,2.396-0.899,4.468-2.695,6.212   c-1.796,1.745-3.938,2.617-6.431,2.617h-9.182c-2.492,0-4.646-0.863-6.46-2.591c-1.813-1.727-2.722-3.808-2.722-6.238v-13.217   c0-2.396,0.908-4.458,2.722-6.187C343.693,193.775,345.846,192.911,348.338,192.911z M348.338,201.687v13.217   c0,1.199,0.448,2.239,1.348,3.119c0.896,0.882,1.969,1.321,3.215,1.321c1.283,0,2.374-0.439,3.271-1.321   c0.897-0.88,1.348-1.92,1.348-3.119v-13.217c0-1.198-0.45-2.229-1.348-3.094c-0.897-0.862-1.988-1.295-3.271-1.295   c-1.246,0-2.318,0.433-3.215,1.295C348.787,199.458,348.338,200.489,348.338,201.687z"/>
	<path clip-path="url(#SVGID_2_)" d="M397.678,201.687h-4.562c-0.405-2.926-1.853-4.389-4.343-4.389   c-1.614,0-2.824,0.31-3.629,0.925c-0.808,0.617-1.209,1.525-1.209,2.724c0,1.268,2.217,3.049,6.65,5.34   c3.629,1.868,5.718,3.419,6.269,4.652c0.55,1.233,0.823,2.556,0.823,3.965c0,2.431-0.897,4.512-2.692,6.238   c-1.796,1.728-3.958,2.591-6.488,2.591h-4.562c-6.121,0-9.183-2.942-9.183-8.829h4.618c0.367,2.961,1.796,4.44,4.288,4.44   c1.649,0,2.877-0.308,3.684-0.926c0.807-0.616,1.209-1.541,1.209-2.774s-2.218-2.995-6.65-5.287   c-3.629-1.867-5.729-3.418-6.295-4.652c-0.569-1.234-0.854-2.555-0.854-3.965c0-2.433,0.907-4.511,2.722-6.239   c1.814-1.726,3.968-2.59,6.461-2.59h4.562C394.251,192.911,397.313,195.835,397.678,201.687"/>
	<path clip-path="url(#SVGID_2_)" fill="none" stroke="#FFFFFF" stroke-width="5" stroke-miterlimit="10" d="M397.678,201.687   h-4.562c-0.405-2.926-1.853-4.389-4.343-4.389c-1.614,0-2.824,0.31-3.629,0.925c-0.808,0.617-1.209,1.525-1.209,2.724   c0,1.268,2.217,3.049,6.65,5.34c3.629,1.868,5.718,3.419,6.269,4.652c0.55,1.233,0.823,2.556,0.823,3.965   c0,2.431-0.897,4.512-2.692,6.238c-1.796,1.728-3.958,2.591-6.488,2.591h-4.562c-6.121,0-9.183-2.942-9.183-8.829h4.618   c0.367,2.961,1.796,4.44,4.288,4.44c1.649,0,2.877-0.308,3.684-0.926c0.807-0.616,1.209-1.541,1.209-2.774s-2.218-2.995-6.65-5.287   c-3.629-1.867-5.729-3.418-6.295-4.652c-0.569-1.234-0.854-2.555-0.854-3.965c0-2.433,0.907-4.511,2.722-6.239   c1.814-1.726,3.968-2.59,6.461-2.59h4.562C394.251,192.911,397.313,195.835,397.678,201.687z"/>
	<path clip-path="url(#SVGID_2_)" d="M405.758,223.733v-39.651h9.183v13.217c0.182-1.479,0.659-2.582,1.428-3.304   c0.771-0.722,1.815-1.084,3.134-1.084h4.618c2.492,0,4.636,0.864,6.432,2.591c1.797,1.727,2.694,3.789,2.694,6.185v22.047h-9.126   v-22.047c0-1.197-0.449-2.228-1.346-3.093c-0.899-0.862-1.99-1.295-3.272-1.295c-1.246,0-2.317,0.433-3.216,1.295   c-0.897,0.865-1.346,1.896-1.346,3.093v22.047H405.758z"/>
	<path clip-path="url(#SVGID_2_)" fill="none" stroke="#FFFFFF" stroke-width="5" stroke-miterlimit="10" d="M405.758,223.733   v-39.651h9.183v13.217c0.182-1.479,0.659-2.582,1.428-3.304c0.771-0.722,1.815-1.084,3.134-1.084h4.618   c2.492,0,4.636,0.864,6.432,2.591c1.797,1.727,2.694,3.789,2.694,6.185v22.047h-9.126v-22.047c0-1.197-0.449-2.228-1.346-3.093   c-0.899-0.862-1.99-1.295-3.272-1.295c-1.246,0-2.317,0.433-3.216,1.295c-0.897,0.865-1.346,1.896-1.346,3.093v22.047H405.758z"/>
	<path clip-path="url(#SVGID_2_)" d="M31.575,184.082h5.391l-2.695,10.307h10.718l2.631-10.307h5.391l-2.696,10.307h8.023v5.124   h-9.37l-2.631,10.306h6.674v5.124h-8.022l-2.696,10.308h-5.327l2.632-10.308H28.944l-2.696,10.308h-5.327l2.632-10.308H15.53   v-5.124h9.37l2.696-10.306h-6.675v-5.124h8.023L31.575,184.082z M32.923,199.512l-2.631,10.306h10.653l2.696-10.306H32.923z"/>
	<polygon clip-path="url(#SVGID_2_)" points="63.382,223.733 63.382,184.082 65.526,184.082 85.097,202.849 104.613,184.082    109.232,184.082 109.232,223.733 100.05,223.733 100.05,199.518 83.998,214.957 68,199.518 68,223.733  "/>
	<path clip-path="url(#SVGID_2_)" d="M117.483,223.733v-30.822c0-2.432,0.908-4.511,2.722-6.239c1.814-1.726,3.966-2.59,6.459-2.59   h9.181c2.492,0,4.636,0.873,6.432,2.617c1.796,1.745,2.694,3.814,2.694,6.212v30.822h-9.126v-17.606h-9.181v17.606H117.483z    M126.664,201.687h9.181v-8.776c0-1.234-0.449-2.282-1.347-3.146c-0.898-0.862-1.988-1.295-3.271-1.295   c-1.246,0-2.318,0.433-3.216,1.295c-0.898,0.864-1.347,1.912-1.347,3.146V201.687z"/>
	<path clip-path="url(#SVGID_2_)" d="M153.222,223.733v-39.651h18.362c2.492,0,4.636,0.873,6.432,2.617   c1.796,1.745,2.694,3.814,2.694,6.212v2.379c0,1.974-0.697,3.869-2.089,5.683c-1.393,1.816-3.739,2.724-7.037,2.724h4.563   c1.246,0,2.318,0.432,3.216,1.295c0.898,0.864,1.347,1.913,1.347,3.146v15.597h-9.126v-13.218c0-1.197-0.449-2.228-1.347-3.093   c-0.898-0.862-1.988-1.296-3.271-1.296h-4.563v17.606H153.222z M162.403,201.687h4.563c1.283,0,2.373-0.433,3.271-1.295   c0.898-0.863,1.347-1.895,1.347-3.094v-4.388c0-1.234-0.449-2.282-1.347-3.146c-0.898-0.862-1.988-1.295-3.271-1.295h-4.563   V201.687z"/>
	<path clip-path="url(#SVGID_2_)" d="M216.306,214.904c-0.367,5.887-3.409,8.828-9.126,8.828h-9.181   c-2.493,0-4.645-0.862-6.46-2.591c-1.814-1.726-2.721-3.806-2.721-6.237v-21.993c0-2.397,0.888-4.467,2.667-6.212   c1.777-1.744,3.948-2.617,6.514-2.617h9.181c5.753,0,8.796,2.943,9.126,8.829h-4.563c-0.367-2.96-1.888-4.441-4.563-4.441h-4.618   c-1.246,0-2.318,0.433-3.216,1.295c-0.898,0.865-1.347,1.912-1.347,3.146v21.993c0,1.198,0.449,2.238,1.347,3.118   c0.898,0.883,1.97,1.322,3.216,1.322h4.618c2.712,0,4.233-1.479,4.563-4.44H216.306z"/>
	<polygon clip-path="url(#SVGID_2_)" points="224.415,223.733 224.415,184.082 233.595,184.082 233.595,201.686 242.777,201.686    242.777,184.082 251.903,184.082 251.903,223.733 242.777,223.733 242.777,206.127 233.595,206.127 233.595,223.733  "/>
	<path clip-path="url(#SVGID_2_)" d="M260.28,184.082h9.182v4.389h-9.182V184.082z M260.28,192.911h9.182v30.822h-9.182V192.911z"/>
	<path clip-path="url(#SVGID_2_)" d="M277.949,223.733v-30.822h9.181v4.388c0.184-1.479,0.659-2.582,1.43-3.304   c0.77-0.722,1.813-1.084,3.134-1.084h4.618c2.491,0,4.636,0.864,6.432,2.591c1.795,1.727,2.694,3.789,2.694,6.185v22.047h-9.126   v-22.047c0-1.197-0.449-2.228-1.348-3.093c-0.898-0.862-1.989-1.295-3.271-1.295c-1.246,0-2.319,0.433-3.216,1.295   c-0.899,0.865-1.348,1.896-1.348,3.093v22.047H277.949z"/>
	<path clip-path="url(#SVGID_2_)" d="M317.689,184.082h9.126v8.828h4.618v4.39h-4.618v17.604c0,1.446,0.495,2.547,1.484,3.306   c0.99,0.758,1.888,1.137,2.695,1.137h0.438v4.387h-4.618c-2.492,0-4.637-0.863-6.432-2.59c-1.796-1.727-2.694-3.807-2.694-6.239   v-17.604h-4.617v-4.39h4.617V184.082z"/>
	<path clip-path="url(#SVGID_2_)" d="M348.338,192.911h9.182c2.492,0,4.635,0.864,6.431,2.59c1.796,1.729,2.695,3.79,2.695,6.187   v13.217c0,2.396-0.899,4.468-2.695,6.212c-1.796,1.745-3.938,2.617-6.431,2.617h-9.182c-2.492,0-4.646-0.863-6.46-2.591   c-1.813-1.727-2.722-3.808-2.722-6.238v-13.217c0-2.396,0.908-4.458,2.722-6.187C343.693,193.775,345.846,192.911,348.338,192.911    M348.338,201.687v13.217c0,1.199,0.448,2.239,1.348,3.119c0.896,0.882,1.969,1.321,3.215,1.321c1.283,0,2.374-0.439,3.271-1.321   c0.897-0.88,1.348-1.92,1.348-3.119v-13.217c0-1.198-0.45-2.229-1.348-3.094c-0.897-0.862-1.988-1.295-3.271-1.295   c-1.246,0-2.318,0.433-3.215,1.295C348.787,199.458,348.338,200.489,348.338,201.687"/>
	<path clip-path="url(#SVGID_2_)" d="M397.678,201.687h-4.562c-0.405-2.926-1.853-4.389-4.343-4.389   c-1.614,0-2.824,0.31-3.629,0.925c-0.808,0.617-1.209,1.525-1.209,2.724c0,1.268,2.217,3.049,6.65,5.34   c3.629,1.868,5.718,3.419,6.269,4.652c0.55,1.233,0.823,2.556,0.823,3.965c0,2.431-0.897,4.512-2.692,6.238   c-1.796,1.728-3.958,2.591-6.488,2.591h-4.562c-6.121,0-9.183-2.942-9.183-8.829h4.618c0.367,2.961,1.796,4.44,4.288,4.44   c1.649,0,2.877-0.308,3.684-0.926c0.807-0.616,1.209-1.541,1.209-2.774s-2.218-2.995-6.65-5.287   c-3.629-1.867-5.729-3.418-6.295-4.652c-0.569-1.234-0.854-2.555-0.854-3.965c0-2.433,0.907-4.511,2.722-6.239   c1.814-1.726,3.968-2.59,6.461-2.59h4.562C394.251,192.911,397.313,195.835,397.678,201.687"/>
	<path clip-path="url(#SVGID_2_)" d="M405.758,223.733v-39.651h9.183v13.217c0.182-1.479,0.659-2.582,1.428-3.304   c0.771-0.722,1.815-1.084,3.134-1.084h4.618c2.492,0,4.636,0.864,6.432,2.591c1.797,1.727,2.694,3.789,2.694,6.185v22.047h-9.126   v-22.047c0-1.197-0.449-2.228-1.346-3.093c-0.899-0.862-1.99-1.295-3.272-1.295c-1.246,0-2.317,0.433-3.216,1.295   c-0.897,0.865-1.346,1.896-1.346,3.093v22.047H405.758z"/>
	<rect x="175.851" y="32.413" clip-path="url(#SVGID_2_)" fill="#009444" width="257.375" height="5.364"/>
	<rect x="175.84" y="43.141" clip-path="url(#SVGID_2_)" fill="#FBB040" width="257.375" height="5.364"/>
	<rect x="175.852" y="37.777" clip-path="url(#SVGID_2_)" fill="#FFDE17" width="257.375" height="5.364"/>
	<rect x="175.852" y="48.505" clip-path="url(#SVGID_2_)" fill="#E63E25" width="257.375" height="5.364"/>
	<rect x="175.852" y="53.87" clip-path="url(#SVGID_2_)" fill="#662D91" width="257.375" height="5.364"/>
	<rect x="175.852" y="59.234" clip-path="url(#SVGID_2_)" fill="#00AEEF" width="257.375" height="5.364"/>
</g>
</svg>